<svg xmlns="http://www.w3.org/2000/svg" width="181.859" height="40" viewBox="0 0 181.859 40"><defs><style>.a{fill:#213a8f;}.b{fill:#f9a870;}</style></defs><g transform="translate(-11.529 1408.458)"><g transform="translate(11.529 -1408.458)"><g transform="translate(105.76 9.326)"><path class="a" d="M-127.06-154.96a3.6,3.6,0,0,1-2.867,1.412,5.363,5.363,0,0,1-3.38-1.369v-8.727a5.657,5.657,0,0,1,3.508-1.54,3.41,3.41,0,0,1,2.995,1.54,7.713,7.713,0,0,1,.984,4.235,6.965,6.965,0,0,1-1.241,4.449m-1.07-15.444a8.167,8.167,0,0,0-5.647,2.31l-.085-.856c-.086-.685-.513-.9-1.326-.9h-3.294c-.813,0-1.241.342-1.241,1.2v27.636c0,.856.428,1.284,1.2,1.284h3.893c.856,0,1.326-.342,1.326-1.326v-9.027a7.113,7.113,0,0,0,4.791,1.711,8.4,8.4,0,0,0,6.631-2.995,12.87,12.87,0,0,0,2.738-8.428,11.736,11.736,0,0,0-2.738-8,8.119,8.119,0,0,0-6.246-2.61" transform="translate(139.724 170.404)"/></g><g transform="translate(127.146 9.241)"><path class="a" d="M-68.681-87.138a4.02,4.02,0,0,1,3.85-3.722c2.225,0,3.294,1.882,3.294,3.722Zm4.235-8.684c-6.588,0-11.08,4.364-11.08,10.995,0,6.845,4.321,11.037,11.123,11.037a19.927,19.927,0,0,0,7.743-1.455c.428-.214.813-.385.813-.941a26.933,26.933,0,0,0-.813-3.337.691.691,0,0,0-.684-.6,1.139,1.139,0,0,0-.513.128,14.457,14.457,0,0,1-5.39,1.112,5.33,5.33,0,0,1-5.519-4.192h11.979c1.07,0,1.54-.214,1.54-1.241v-.556c0-2.995-.428-5.946-2.567-8.214a8.847,8.847,0,0,0-6.631-2.738" transform="translate(75.526 95.822)"/></g><g transform="translate(147.378 3.765)"><path class="a" d="M-154.96-224.5c-.086-.385-.257-.6-.6-.6a1.888,1.888,0,0,0-.6.128,8.9,8.9,0,0,1-2.738.513c-1.882,0-2.182-1.369-2.182-3.594v-8.342h4.663a.933.933,0,0,0,1.027-.984v-2.481c0-.642-.428-.9-1.027-.9h-4.62v-5.005c0-.77-.342-1.112-.984-1.112h-.257l-3.85.513c-.77.086-1.326.257-1.326,1.112v4.492h-1.968a1,1,0,0,0-.984,1.112v1.84c0,1.155.171,1.412,1.2,1.412h1.711v8.214c0,3.508.086,5.262,1.455,6.888,1.155,1.369,3.08,1.925,5.476,1.925a13.466,13.466,0,0,0,5.476-1.112c.471-.214.684-.428.684-.9a1.188,1.188,0,0,0-.043-.385Z" transform="translate(170.404 246.874)"/></g><g transform="translate(164.618 9.883)"><path class="a" d="M-162.686-165.69h-8.3l-.043-.085,8.727-12.235a2.431,2.431,0,0,0,.471-1.626v-1.5c0-.513-.128-1.069-1.112-1.069h-14.2a1,1,0,0,0-.984,1.112v1.84c0,1.155.171,1.412,1.2,1.412h7.016l.043.043-8.556,12.321a2.173,2.173,0,0,0-.471,1.583v1.326c0,.727.3,1.2,1.241,1.2h14.973a.933.933,0,0,0,1.027-.984v-2.481c0-.642-.428-.856-1.027-.856" transform="translate(178.899 182.204)"/></g><g transform="translate(0 9.284)"><path class="b" d="M-142.513-150.668a5.335,5.335,0,0,1-3.594,1.8c-3.251,0-3.936-3.166-3.936-5.818,0-3.979,1.968-5.69,4.064-5.69a5.82,5.82,0,0,1,3.465,1.455Zm7.4,2.1h-.342c-.471,0-.642-.3-.642-.727v-14.759a.944.944,0,0,0-1.027-1.027h-3.85a.948.948,0,0,0-.984.856l-.128.941a6.41,6.41,0,0,0-5.219-2.4c-4.706,0-9.412,3.85-9.412,11.422,0,5.69,2.866,10.567,9.027,10.567a9.153,9.153,0,0,0,5.989-2.524h.086c.556,1.241,1.583,1.968,4.107,1.968h2.267a.933.933,0,0,0,1.027-.984v-2.481c0-.642-.3-.856-.9-.856" transform="translate(156.716 165.684)"/></g><g transform="translate(22.503 0)"><path class="b" d="M-142.083-245.96a5.658,5.658,0,0,1-3.508,1.54c-3.251,0-3.979-3.123-3.979-5.775,0-2.567.984-5.861,4.107-5.861a5.364,5.364,0,0,1,3.38,1.369Zm5.561-24.513c-.086,0-.257.043-.342.043l-4.193.556c-.813.128-1.027.556-1.027,1.326v9.027a7.113,7.113,0,0,0-4.791-1.711c-6.332,0-9.369,5.733-9.369,11.423,0,5.818,2.995,10.61,9.2,10.61a8.27,8.27,0,0,0,5.433-2.31l.086.9c.043.471.385.856,1.112.856h3.594a1.069,1.069,0,0,0,1.155-1.2v-28.578c0-.6-.257-.941-.856-.941" transform="translate(156.244 270.474)"/></g><g transform="translate(44.792 9.284)"><path class="b" d="M-107.313-169.982c-3.166,0-4.064-2.866-4.064-6.032,0-3.123,1.027-5.861,4.193-5.861s4.064,2.781,4.064,5.947c0,3.123-1.027,5.947-4.193,5.947m.214-16.941c-6.93,0-10.909,4.663-10.909,10.952,0,6.374,3.38,11.037,10.61,11.037,6.931,0,10.909-4.663,10.909-10.952,0-6.374-3.38-11.037-10.61-11.037" transform="translate(118.008 186.923)"/></g><g transform="translate(66.138 3.765)"><path class="b" d="M-154.961-224.5c-.086-.385-.257-.6-.6-.6a1.888,1.888,0,0,0-.6.128,8.9,8.9,0,0,1-2.738.513c-1.882,0-2.182-1.369-2.182-3.594v-8.342h4.663a.933.933,0,0,0,1.027-.984v-2.481c0-.642-.428-.9-1.027-.9h-4.62v-5.005c0-.77-.342-1.112-.984-1.112h-.257l-3.85.513c-.77.086-1.326.257-1.326,1.112v4.492h-1.968a1,1,0,0,0-.984,1.112v1.84c0,1.155.171,1.412,1.2,1.412h1.711v8.214c0,3.508.085,5.262,1.454,6.888,1.155,1.369,3.08,1.925,5.476,1.925a13.466,13.466,0,0,0,5.476-1.112c.471-.214.684-.428.684-.9a1.185,1.185,0,0,0-.043-.385Z" transform="translate(170.405 246.874)"/></g><g transform="translate(81.71 9.241)"><path class="b" d="M-68.681-87.138a4.019,4.019,0,0,1,3.85-3.722c2.225,0,3.294,1.882,3.294,3.722Zm4.235-8.684c-6.588,0-11.08,4.364-11.08,10.995,0,6.845,4.321,11.037,11.123,11.037a19.929,19.929,0,0,0,7.743-1.455c.428-.214.813-.385.813-.941a26.934,26.934,0,0,0-.813-3.337.692.692,0,0,0-.684-.6,1.139,1.139,0,0,0-.513.128,14.457,14.457,0,0,1-5.39,1.112,5.329,5.329,0,0,1-5.519-4.192h11.978c1.07,0,1.54-.214,1.54-1.241v-.556c0-2.995-.428-5.946-2.567-8.214a8.847,8.847,0,0,0-6.631-2.738" transform="translate(75.526 95.822)"/></g></g></g></svg>